<svg viewBox="0 0 1400 520" xmlns="http://www.w3.org/2000/svg" role="img" aria-label="ORE AI Innovation Award variant-06-azimuth">
  <defs>
    <linearGradient id="gold" x1="0" y1="0" x2="1" y2="1">
      <stop offset="0%" stop-color="#FFE08A"/>
      <stop offset="55%" stop-color="#D4AF37"/>
      <stop offset="100%" stop-color="#B8860B"/>
    </linearGradient>
    <linearGradient id="ink" x1="0" y1="0" x2="0" y2="1">
      <stop offset="0%" stop-color="#D8C089"/>
      <stop offset="100%" stop-color="#8F7844"/>
    </linearGradient>
  </defs>
  <rect width="1400" height="520" fill="#0A0A0A"/>

  <circle cx="210" cy="250" r="112" fill="none" stroke="url(#gold)" stroke-width="20" stroke-linecap="round"/>
  <rect x="292" y="165" width="48" height="170" fill="#0A0A0A" transform="rotate(28 316 250)"/>
  <rect x="78" y="165" width="48" height="170" fill="#0A0A0A" transform="rotate(28 102 250)"/>

  <circle cx="210" cy="250" r="132" fill="none" stroke="url(#ink)" stroke-width="1.6" opacity="0.56"/>
  <line x1="342.00" y1="250.00" x2="356.00" y2="250.00" stroke="url(#ink)" stroke-width="1.7" opacity="0.72"/>
  <line x1="343.93" y1="273.62" x2="349.84" y2="274.66" stroke="url(#ink)" stroke-width="1.0" opacity="0.45"/>
  <line x1="337.80" y1="296.51" x2="343.44" y2="298.57" stroke="url(#ink)" stroke-width="1.0" opacity="0.45"/>
  <line x1="324.32" y1="316.00" x2="336.44" y2="323.00" stroke="url(#ink)" stroke-width="1.7" opacity="0.72"/>
  <line x1="314.18" y1="337.42" x2="318.78" y2="341.28" stroke="url(#ink)" stroke-width="1.0" opacity="0.45"/>
  <line x1="297.42" y1="354.18" x2="301.28" y2="358.78" stroke="url(#ink)" stroke-width="1.0" opacity="0.45"/>
  <line x1="276.00" y1="364.32" x2="283.00" y2="376.44" stroke="url(#ink)" stroke-width="1.7" opacity="0.72"/>
  <line x1="256.51" y1="377.80" x2="258.57" y2="383.44" stroke="url(#ink)" stroke-width="1.0" opacity="0.45"/>
  <line x1="233.62" y1="383.93" x2="234.66" y2="389.84" stroke="url(#ink)" stroke-width="1.0" opacity="0.45"/>
  <line x1="210.00" y1="382.00" x2="210.00" y2="396.00" stroke="url(#ink)" stroke-width="1.7" opacity="0.72"/>
  <line x1="186.38" y1="383.93" x2="185.34" y2="389.84" stroke="url(#ink)" stroke-width="1.0" opacity="0.45"/>
  <line x1="163.49" y1="377.80" x2="161.43" y2="383.44" stroke="url(#ink)" stroke-width="1.0" opacity="0.45"/>
  <line x1="144.00" y1="364.32" x2="137.00" y2="376.44" stroke="url(#ink)" stroke-width="1.7" opacity="0.72"/>
  <line x1="122.58" y1="354.18" x2="118.72" y2="358.78" stroke="url(#ink)" stroke-width="1.0" opacity="0.45"/>
  <line x1="105.82" y1="337.42" x2="101.22" y2="341.28" stroke="url(#ink)" stroke-width="1.0" opacity="0.45"/>
  <line x1="95.68" y1="316.00" x2="83.56" y2="323.00" stroke="url(#ink)" stroke-width="1.7" opacity="0.72"/>
  <line x1="82.20" y1="296.51" x2="76.56" y2="298.57" stroke="url(#ink)" stroke-width="1.0" opacity="0.45"/>
  <line x1="76.07" y1="273.62" x2="70.16" y2="274.66" stroke="url(#ink)" stroke-width="1.0" opacity="0.45"/>
  <line x1="78.00" y1="250.00" x2="64.00" y2="250.00" stroke="url(#ink)" stroke-width="1.7" opacity="0.72"/>
  <line x1="76.07" y1="226.38" x2="70.16" y2="225.34" stroke="url(#ink)" stroke-width="1.0" opacity="0.45"/>
  <line x1="82.20" y1="203.49" x2="76.56" y2="201.43" stroke="url(#ink)" stroke-width="1.0" opacity="0.45"/>
  <line x1="95.68" y1="184.00" x2="83.56" y2="177.00" stroke="url(#ink)" stroke-width="1.7" opacity="0.72"/>
  <line x1="105.82" y1="162.58" x2="101.22" y2="158.72" stroke="url(#ink)" stroke-width="1.0" opacity="0.45"/>
  <line x1="122.58" y1="145.82" x2="118.72" y2="141.22" stroke="url(#ink)" stroke-width="1.0" opacity="0.45"/>
  <line x1="144.00" y1="135.68" x2="137.00" y2="123.56" stroke="url(#ink)" stroke-width="1.7" opacity="0.72"/>
  <line x1="163.49" y1="122.20" x2="161.43" y2="116.56" stroke="url(#ink)" stroke-width="1.0" opacity="0.45"/>
  <line x1="186.38" y1="116.07" x2="185.34" y2="110.16" stroke="url(#ink)" stroke-width="1.0" opacity="0.45"/>
  <line x1="210.00" y1="118.00" x2="210.00" y2="104.00" stroke="url(#ink)" stroke-width="1.7" opacity="0.72"/>
  <line x1="233.62" y1="116.07" x2="234.66" y2="110.16" stroke="url(#ink)" stroke-width="1.0" opacity="0.45"/>
  <line x1="256.51" y1="122.20" x2="258.57" y2="116.56" stroke="url(#ink)" stroke-width="1.0" opacity="0.45"/>
  <line x1="276.00" y1="135.68" x2="283.00" y2="123.56" stroke="url(#ink)" stroke-width="1.7" opacity="0.72"/>
  <line x1="297.42" y1="145.82" x2="301.28" y2="141.22" stroke="url(#ink)" stroke-width="1.0" opacity="0.45"/>
  <line x1="314.18" y1="162.58" x2="318.78" y2="158.72" stroke="url(#ink)" stroke-width="1.0" opacity="0.45"/>
  <line x1="324.32" y1="184.00" x2="336.44" y2="177.00" stroke="url(#ink)" stroke-width="1.7" opacity="0.72"/>
  <line x1="337.80" y1="203.49" x2="343.44" y2="201.43" stroke="url(#ink)" stroke-width="1.0" opacity="0.45"/>
  <line x1="343.93" y1="226.38" x2="349.84" y2="225.34" stroke="url(#ink)" stroke-width="1.0" opacity="0.45"/>

  <line x1="210" y1="250" x2="298" y2="162" stroke="url(#ink)" stroke-width="1.0" opacity="0.45"/><line x1="210" y1="250" x2="122" y2="338" stroke="url(#ink)" stroke-width="1.0" opacity="0.45"/><line x1="210" y1="250" x2="298" y2="338" stroke="url(#ink)" stroke-width="1.0" opacity="0.45"/><line x1="210" y1="250" x2="122" y2="162" stroke="url(#ink)" stroke-width="1.0" opacity="0.45"/>

  <rect x="198" y="138" width="24" height="224" fill="#0A0A0A"/>
  <rect x="203" y="153" width="14" height="194" fill="url(#gold)" opacity="0.96"/>
  <line x1="201" y1="176" x2="194" y2="176" stroke="url(#ink)" stroke-width="1.8"/>
  <line x1="201" y1="206" x2="196" y2="206" stroke="url(#ink)" stroke-width="1.2"/>
  <line x1="201" y1="236" x2="194" y2="236" stroke="url(#ink)" stroke-width="1.8"/>
  <line x1="201" y1="266" x2="196" y2="266" stroke="url(#ink)" stroke-width="1.2"/>
  <line x1="201" y1="296" x2="194" y2="296" stroke="url(#ink)" stroke-width="1.8"/>
  <line x1="201" y1="326" x2="196" y2="326" stroke="url(#ink)" stroke-width="1.2"/>
  <line x1="219" y1="176" x2="226" y2="176" stroke="url(#ink)" stroke-width="1.8"/>
  <line x1="219" y1="206" x2="224" y2="206" stroke="url(#ink)" stroke-width="1.2"/>
  <line x1="219" y1="236" x2="226" y2="236" stroke="url(#ink)" stroke-width="1.8"/>
  <line x1="219" y1="266" x2="224" y2="266" stroke="url(#ink)" stroke-width="1.2"/>
  <line x1="219" y1="296" x2="226" y2="296" stroke="url(#ink)" stroke-width="1.8"/>
  <line x1="219" y1="326" x2="224" y2="326" stroke="url(#ink)" stroke-width="1.2"/>
  <path d="M 210 138 L 205 150 L 215 150 Z" fill="url(#ink)" opacity="0.9"/>

  <text x="390" y="220" fill="url(#gold)" font-size="92" letter-spacing="7" font-family="Cinzel, 'Times New Roman', serif">ORE AI</text>
  <text x="390" y="302" fill="url(#gold)" font-size="58" letter-spacing="6" font-family="Cinzel, 'Times New Roman', serif">INNOVATION AWARD</text>
  <text x="392" y="348" fill="#B9A169" font-size="24" letter-spacing="4" font-family="Inter, 'Segoe UI', sans-serif">AZIMUTH BEARING SPOKES</text>
</svg>
