<svg viewBox="0 0 1400 520" xmlns="http://www.w3.org/2000/svg" role="img" aria-label="ORE AI Innovation Award variant-12-bearing-labels">
  <defs>
    <linearGradient id="gold" x1="0" y1="0" x2="1" y2="1">
      <stop offset="0%" stop-color="#FFE08A"/>
      <stop offset="55%" stop-color="#D4AF37"/>
      <stop offset="100%" stop-color="#B8860B"/>
    </linearGradient>
    <linearGradient id="ink" x1="0" y1="0" x2="0" y2="1">
      <stop offset="0%" stop-color="#D8C089"/>
      <stop offset="100%" stop-color="#8F7844"/>
    </linearGradient>
  </defs>
  <rect width="1400" height="520" fill="#0A0A0A"/>

  <circle cx="210" cy="250" r="112" fill="none" stroke="url(#gold)" stroke-width="20" stroke-linecap="round"/>
  <rect x="292" y="165" width="48" height="170" fill="#0A0A0A" transform="rotate(28 316 250)"/>
  <rect x="78" y="165" width="48" height="170" fill="#0A0A0A" transform="rotate(28 102 250)"/>

  <circle cx="210" cy="250" r="132" fill="none" stroke="url(#ink)" stroke-width="1.6" opacity="0.56"/>
  <line x1="342.00" y1="250.00" x2="356.00" y2="250.00" stroke="url(#ink)" stroke-width="1.7" opacity="0.72"/>
  <line x1="337.80" y1="296.51" x2="343.44" y2="298.57" stroke="url(#ink)" stroke-width="1.0" opacity="0.45"/>
  <line x1="311.12" y1="334.85" x2="321.84" y2="343.85" stroke="url(#ink)" stroke-width="1.7" opacity="0.72"/>
  <line x1="278.00" y1="367.78" x2="281.00" y2="372.98" stroke="url(#ink)" stroke-width="1.0" opacity="0.45"/>
  <line x1="232.92" y1="379.99" x2="235.35" y2="393.78" stroke="url(#ink)" stroke-width="1.7" opacity="0.72"/>
  <line x1="186.38" y1="383.93" x2="185.34" y2="389.84" stroke="url(#ink)" stroke-width="1.0" opacity="0.45"/>
  <line x1="144.00" y1="364.32" x2="137.00" y2="376.44" stroke="url(#ink)" stroke-width="1.7" opacity="0.72"/>
  <line x1="105.82" y1="337.42" x2="101.22" y2="341.28" stroke="url(#ink)" stroke-width="1.0" opacity="0.45"/>
  <line x1="85.96" y1="295.15" x2="72.80" y2="299.93" stroke="url(#ink)" stroke-width="1.7" opacity="0.72"/>
  <line x1="74.00" y1="250.00" x2="68.00" y2="250.00" stroke="url(#ink)" stroke-width="1.0" opacity="0.45"/>
  <line x1="85.96" y1="204.85" x2="72.80" y2="200.07" stroke="url(#ink)" stroke-width="1.7" opacity="0.72"/>
  <line x1="105.82" y1="162.58" x2="101.22" y2="158.72" stroke="url(#ink)" stroke-width="1.0" opacity="0.45"/>
  <line x1="144.00" y1="135.68" x2="137.00" y2="123.56" stroke="url(#ink)" stroke-width="1.7" opacity="0.72"/>
  <line x1="186.38" y1="116.07" x2="185.34" y2="110.16" stroke="url(#ink)" stroke-width="1.0" opacity="0.45"/>
  <line x1="232.92" y1="120.01" x2="235.35" y2="106.22" stroke="url(#ink)" stroke-width="1.7" opacity="0.72"/>
  <line x1="278.00" y1="132.22" x2="281.00" y2="127.02" stroke="url(#ink)" stroke-width="1.0" opacity="0.45"/>
  <line x1="311.12" y1="165.15" x2="321.84" y2="156.15" stroke="url(#ink)" stroke-width="1.7" opacity="0.72"/>
  <line x1="337.80" y1="203.49" x2="343.44" y2="201.43" stroke="url(#ink)" stroke-width="1.0" opacity="0.45"/>

  <text x="210" y="100" fill="url(#ink)" font-size="14" text-anchor="middle" font-family="Inter, Segoe UI, sans-serif">N</text><text x="360" y="255" fill="url(#ink)" font-size="14" text-anchor="middle" font-family="Inter, Segoe UI, sans-serif">E</text><text x="210" y="410" fill="url(#ink)" font-size="14" text-anchor="middle" font-family="Inter, Segoe UI, sans-serif">S</text><text x="60" y="255" fill="url(#ink)" font-size="14" text-anchor="middle" font-family="Inter, Segoe UI, sans-serif">W</text>

  <rect x="198" y="138" width="24" height="224" fill="#0A0A0A"/>
  <rect x="203" y="153" width="14" height="194" fill="url(#gold)" opacity="0.96"/>
  <line x1="201" y1="176" x2="194" y2="176" stroke="url(#ink)" stroke-width="1.8"/>
  <line x1="201" y1="206" x2="196" y2="206" stroke="url(#ink)" stroke-width="1.2"/>
  <line x1="201" y1="236" x2="194" y2="236" stroke="url(#ink)" stroke-width="1.8"/>
  <line x1="201" y1="266" x2="196" y2="266" stroke="url(#ink)" stroke-width="1.2"/>
  <line x1="201" y1="296" x2="194" y2="296" stroke="url(#ink)" stroke-width="1.8"/>
  <line x1="201" y1="326" x2="196" y2="326" stroke="url(#ink)" stroke-width="1.2"/>
  <line x1="219" y1="176" x2="226" y2="176" stroke="url(#ink)" stroke-width="1.8"/>
  <line x1="219" y1="206" x2="224" y2="206" stroke="url(#ink)" stroke-width="1.2"/>
  <line x1="219" y1="236" x2="226" y2="236" stroke="url(#ink)" stroke-width="1.8"/>
  <line x1="219" y1="266" x2="224" y2="266" stroke="url(#ink)" stroke-width="1.2"/>
  <line x1="219" y1="296" x2="226" y2="296" stroke="url(#ink)" stroke-width="1.8"/>
  <line x1="219" y1="326" x2="224" y2="326" stroke="url(#ink)" stroke-width="1.2"/>
  <path d="M 210 138 L 205 150 L 215 150 Z" fill="url(#ink)" opacity="0.9"/>

  <text x="390" y="220" fill="url(#gold)" font-size="92" letter-spacing="7" font-family="Cinzel, 'Times New Roman', serif">ORE AI</text>
  <text x="390" y="302" fill="url(#gold)" font-size="58" letter-spacing="6" font-family="Cinzel, 'Times New Roman', serif">INNOVATION AWARD</text>
  <text x="392" y="348" fill="#B9A169" font-size="24" letter-spacing="4" font-family="Inter, 'Segoe UI', sans-serif">N E S W MARKS</text>
</svg>
