<svg viewBox="0 0 1400 520" xmlns="http://www.w3.org/2000/svg" role="img" aria-label="ORE AI Innovation Award Sinusoid Single">
  <defs>
    <linearGradient id="gold" x1="0" y1="0" x2="1" y2="1">
      <stop offset="0%" stop-color="#FFE08A"/>
      <stop offset="55%" stop-color="#D4AF37"/>
      <stop offset="100%" stop-color="#B8860B"/>
    </linearGradient>
    <linearGradient id="ink" x1="0" y1="0" x2="0" y2="1">
      <stop offset="0%" stop-color="#D8C089"/>
      <stop offset="100%" stop-color="#8F7844"/>
    </linearGradient>
  </defs>
  <rect width="1400" height="520" fill="#0A0A0A"/>

  <circle cx="210" cy="250" r="112" fill="none" stroke="url(#gold)" stroke-width="20" stroke-linecap="round"/>
  <line x1="285.1" y1="187.0" x2="306.5" y2="169.0" stroke="#0A0A0A" stroke-width="24" stroke-linecap="butt"/>
  <line x1="113.5" y1="331.0" x2="134.9" y2="313.0" stroke="#0A0A0A" stroke-width="24" stroke-linecap="butt"/>

  <circle cx="210" cy="250" r="132" fill="none" stroke="url(#ink)" stroke-width="1.6" opacity="0.56"/>
  <line x1="342.00" y1="250.00" x2="356.00" y2="250.00" stroke="url(#ink)" stroke-width="1.7" opacity="0.72"/>
  <line x1="334.04" y1="295.15" x2="347.20" y2="299.93" stroke="url(#ink)" stroke-width="1.7" opacity="0.72"/>
  <line x1="311.12" y1="334.85" x2="321.84" y2="343.85" stroke="url(#ink)" stroke-width="1.7" opacity="0.72"/>
  <line x1="276.00" y1="364.32" x2="283.00" y2="376.44" stroke="url(#ink)" stroke-width="1.7" opacity="0.72"/>
  <line x1="232.92" y1="379.99" x2="235.35" y2="393.78" stroke="url(#ink)" stroke-width="1.7" opacity="0.72"/>
  <line x1="187.08" y1="379.99" x2="184.65" y2="393.78" stroke="url(#ink)" stroke-width="1.7" opacity="0.72"/>
  <line x1="144.00" y1="364.32" x2="137.00" y2="376.44" stroke="url(#ink)" stroke-width="1.7" opacity="0.72"/>
  <line x1="108.88" y1="334.85" x2="98.16" y2="343.85" stroke="url(#ink)" stroke-width="1.7" opacity="0.72"/>
  <line x1="85.96" y1="295.15" x2="72.80" y2="299.93" stroke="url(#ink)" stroke-width="1.7" opacity="0.72"/>
  <line x1="78.00" y1="250.00" x2="64.00" y2="250.00" stroke="url(#ink)" stroke-width="1.7" opacity="0.72"/>
  <line x1="85.96" y1="204.85" x2="72.80" y2="200.07" stroke="url(#ink)" stroke-width="1.7" opacity="0.72"/>
  <line x1="108.88" y1="165.15" x2="98.16" y2="156.15" stroke="url(#ink)" stroke-width="1.7" opacity="0.72"/>
  <line x1="144.00" y1="135.68" x2="137.00" y2="123.56" stroke="url(#ink)" stroke-width="1.7" opacity="0.72"/>
  <line x1="187.08" y1="120.01" x2="184.65" y2="106.22" stroke="url(#ink)" stroke-width="1.7" opacity="0.72"/>
  <line x1="232.92" y1="120.01" x2="235.35" y2="106.22" stroke="url(#ink)" stroke-width="1.7" opacity="0.72"/>
  <line x1="276.00" y1="135.68" x2="283.00" y2="123.56" stroke="url(#ink)" stroke-width="1.7" opacity="0.72"/>
  <line x1="311.12" y1="165.15" x2="321.84" y2="156.15" stroke="url(#ink)" stroke-width="1.7" opacity="0.72"/>
  <line x1="334.04" y1="204.85" x2="347.20" y2="200.07" stroke="url(#ink)" stroke-width="1.7" opacity="0.72"/>

  <line x1="136" y1="312" x2="284" y2="188" stroke="url(#gold)" stroke-width="14" stroke-linecap="butt"/>

  <path d="M 124 272 C 146 246, 170 246, 192 272 C 214 298, 238 298, 260 272 C 282 246, 306 246, 328 272" fill="none" stroke="#8B7FD9" stroke-width="4" opacity="0.8"/>

  <text x="390" y="220" fill="url(#gold)" font-size="92" letter-spacing="7" font-family="Cinzel, 'Times New Roman', serif">ORE AI</text>
  <text x="390" y="302" fill="url(#gold)" font-size="58" letter-spacing="6" font-family="Cinzel, 'Times New Roman', serif">INNOVATION AWARD</text>
  <text x="392" y="348" fill="#B9A169" font-size="24" letter-spacing="4" font-family="Inter, 'Segoe UI', sans-serif">SINGLE SINUSOID</text>
</svg>
