<svg viewBox="0 0 200 200" xmlns="http://www.w3.org/2000/svg">
  <defs>
    <linearGradient id="oreGold" x1="0%" y1="0%" x2="0%" y2="100%">
      <stop offset="0%" stop-color="#FFE8A8"/>
      <stop offset="52%" stop-color="#D4AF37"/>
      <stop offset="100%" stop-color="#9A6A1E"/>
    </linearGradient>
    <linearGradient id="oreInk" x1="0%" y1="0%" x2="0%" y2="100%">
      <stop offset="0%" stop-color="#C7A86A"/>
      <stop offset="100%" stop-color="#856A36"/>
    </linearGradient>
    <mask id="iconRingCutsLocal" maskUnits="userSpaceOnUse" maskContentUnits="userSpaceOnUse" x="-180" y="-180" width="360" height="360">
      <rect x="-180" y="-180" width="360" height="360" fill="white"/>
      <line x1="75.1" y1="-63.0" x2="96.5" y2="-81.0" stroke="black" stroke-width="24"/>
      <line x1="-96.5" y1="81.0" x2="-75.1" y2="63.0" stroke="black" stroke-width="24"/>
    </mask>
    <clipPath id="axonCoreClip">
      <circle cx="0" cy="0" r="76"/>
    </clipPath>
  </defs>

  <rect width="200" height="200" fill="none"/>

  <svg x="17.2" y="17.2" width="165.6" height="165.6" viewBox="-180 -180 360 360">
    <circle cx="0" cy="0" r="112" fill="none" stroke="url(#oreGold)" stroke-width="20" stroke-linecap="round" mask="url(#iconRingCutsLocal)"/>
    <circle cx="0" cy="0" r="132" fill="none" stroke="url(#oreInk)" stroke-width="1.6" opacity="0.52"/>
    <circle cx="0" cy="0" r="148" fill="none" stroke="url(#oreInk)" stroke-width="0.9" opacity="0.18"/>

    <g clip-path="url(#axonCoreClip)">
      <circle cx="0" cy="0" r="70" fill="none" stroke="url(#oreInk)" stroke-width="8" opacity="0.34"/>
      <circle cx="0" cy="0" r="88" fill="none" stroke="url(#oreInk)" stroke-width="0.95" opacity="0.15"/>

      <path d="M -72 84 H 76 M -78 68 H 82 M -84 52 H 88 M -90 36 H 82 M -86 20 H 74 M -78 4 H 68 M -68 -12 H 62 M -56 -28 H 54 M -42 -44 H 42 M -26 -60 H 26" fill="none" stroke="url(#oreInk)" stroke-width="0.9" opacity="0.2"/>
      <path d="M -72 84 V -66 M -56 80 V -72 M -40 72 V -78 M -24 64 V -82 M -8 60 V -84 M 8 58 V -84 M 24 56 V -80 M 40 54 V -72 M 56 48 V -64 M 72 42 V -54" fill="none" stroke="url(#oreInk)" stroke-width="0.9" opacity="0.2"/>

      <path d="M -78 64 L -60 46 L -60 28 L -38 28 L -38 52 L -14 52 L -14 12 L -28 12 L -28 -16 L 14 -16 L 14 4 L 38 4 L 38 -28 L 62 -28 L 62 -52 L 84 -52 L 84 -78 L 100 -94" fill="none" stroke="url(#oreGold)" stroke-width="9" stroke-linecap="round" stroke-linejoin="round"/>

      <path d="M -60 28 L -74 28 L -74 0 L -50 0" fill="none" stroke="url(#oreInk)" stroke-width="3" opacity="0.8" stroke-linecap="round" stroke-linejoin="round"/>
      <path d="M -38 52 L -38 72 L -16 72" fill="none" stroke="url(#oreInk)" stroke-width="3" opacity="0.8" stroke-linecap="round" stroke-linejoin="round"/>
      <path d="M -14 12 L 4 12 L 4 36 L 26 36" fill="none" stroke="url(#oreInk)" stroke-width="3" opacity="0.8" stroke-linecap="round" stroke-linejoin="round"/>
      <path d="M -28 -16 L -28 -36 L -4 -36" fill="none" stroke="url(#oreInk)" stroke-width="3" opacity="0.8" stroke-linecap="round" stroke-linejoin="round"/>
      <path d="M 14 -16 L 26 -30 L 52 -30" fill="none" stroke="url(#oreInk)" stroke-width="3" opacity="0.8" stroke-linecap="round" stroke-linejoin="round"/>
      <path d="M 38 4 L 58 4 L 58 26 L 82 26" fill="none" stroke="url(#oreInk)" stroke-width="3" opacity="0.8" stroke-linecap="round" stroke-linejoin="round"/>
      <path d="M 62 -28 L 80 -28 L 80 -12 L 96 -12" fill="none" stroke="url(#oreInk)" stroke-width="3" opacity="0.8" stroke-linecap="round" stroke-linejoin="round"/>
      <path d="M -14 52 L 4 70 L 28 70" fill="none" stroke="url(#oreInk)" stroke-width="3" opacity="0.8" stroke-linecap="round" stroke-linejoin="round"/>
      <path d="M 14 4 L 14 26 L -4 26 L -4 42 L -28 42" fill="none" stroke="url(#oreInk)" stroke-width="3" opacity="0.8" stroke-linecap="round" stroke-linejoin="round"/>
      <path d="M 38 -28 L 38 -48 L 22 -48 L 22 -64 L 4 -64" fill="none" stroke="url(#oreInk)" stroke-width="3" opacity="0.8" stroke-linecap="round" stroke-linejoin="round"/>

      <path d="M -50 0 L -38 -12 L -24 -12" fill="none" stroke="url(#oreGold)" stroke-width="2.2" opacity="0.72" stroke-linecap="round"/>
      <path d="M -4 -36 L 10 -50 L 24 -50" fill="none" stroke="url(#oreGold)" stroke-width="2.2" opacity="0.72" stroke-linecap="round"/>
      <path d="M 26 36 L 38 48 L 54 48" fill="none" stroke="url(#oreGold)" stroke-width="2.2" opacity="0.72" stroke-linecap="round"/>
      <path d="M 82 26 L 94 14 L 104 14" fill="none" stroke="url(#oreGold)" stroke-width="2.2" opacity="0.72" stroke-linecap="round"/>

      <circle cx="-60" cy="28" r="3.2" fill="url(#oreGold)"/>
      <circle cx="-38" cy="52" r="3.2" fill="url(#oreGold)"/>
      <circle cx="-14" cy="12" r="3.2" fill="url(#oreGold)"/>
      <circle cx="-28" cy="-16" r="3.2" fill="url(#oreGold)"/>
      <circle cx="14" cy="-16" r="3.2" fill="url(#oreGold)"/>
      <circle cx="38" cy="4" r="3.2" fill="url(#oreGold)"/>
      <circle cx="62" cy="-28" r="3.2" fill="url(#oreGold)"/>
      <circle cx="84" cy="-52" r="3.2" fill="url(#oreGold)"/>

      <rect x="-86" y="-2" width="9" height="9" rx="1.2" fill="url(#oreInk)" opacity="0.88"/>
      <rect x="-32" y="40" width="9" height="9" rx="1.2" fill="url(#oreInk)" opacity="0.88"/>
      <rect x="-8" y="-66" width="9" height="9" rx="1.2" fill="url(#oreInk)" opacity="0.88"/>
      <rect x="18" y="-50" width="9" height="9" rx="1.2" fill="url(#oreInk)" opacity="0.88"/>
      <rect x="48" y="46" width="9" height="9" rx="1.2" fill="url(#oreInk)" opacity="0.88"/>
      <rect x="76" y="24" width="9" height="9" rx="1.2" fill="url(#oreInk)" opacity="0.88"/>
      <rect x="88" y="-14" width="9" height="9" rx="1.2" fill="url(#oreInk)" opacity="0.88"/>
    </g>

    <line x1="-79" y1="64" x2="-59" y2="46" stroke="url(#oreGold)" stroke-width="6" stroke-linecap="round"/>
    <line x1="80" y1="-74" x2="99" y2="-92" stroke="url(#oreGold)" stroke-width="6" stroke-linecap="round"/>
  </svg>
</svg>
